<?xml version="1.0" encoding="UTF-8" standalone="no"?>
<!DOCTYPE svg PUBLIC "-//W3C//DTD SVG 1.1//EN"
 "http://www.w3.org/Graphics/SVG/1.1/DTD/svg11.dtd">
<!-- Generated by graphviz version 9.0.0 (20230911.1827)
 -->
<!-- Pages: 1 -->
<svg width="783pt" height="388pt"
 viewBox="0.00 0.00 783.00 387.88" xmlns="http://www.w3.org/2000/svg" xmlns:xlink="http://www.w3.org/1999/xlink">
<g id="graph0" class="graph" transform="scale(1 1) rotate(0) translate(4 383.88)">
<polygon fill="white" stroke="none" points="-4,4 -4,-383.88 779,-383.88 779,4 -4,4"/>
<g id="clust1" class="cluster">
<title>cluster_boto3</title>
<polygon fill="none" stroke="black" stroke-width="2.5" points="394,-85.3 394,-138.4 497,-138.4 497,-85.3 394,-85.3"/>
<text text-anchor="middle" x="445.5" y="-113.5" font-family="Times,serif" font-size="22.00"> &#160;&#160;boto3 &#160;&#160;&#160;</text>
</g>
<g id="clust2" class="cluster">
<title>cluster_argparse</title>
<polygon fill="none" stroke="black" stroke-width="2.5" points="461,-8 461,-61.1 572,-61.1 572,-8 461,-8"/>
<text text-anchor="middle" x="516.5" y="-36.2" font-family="Times,serif" font-size="22.00"> &#160;argparse &#160;</text>
</g>
<g id="clust3" class="cluster">
<title>cluster_sys</title>
<polygon fill="none" stroke="black" stroke-width="2.5" points="534,-85.3 534,-138.4 625,-138.4 625,-85.3 534,-85.3"/>
<text text-anchor="middle" x="579.5" y="-113.5" font-family="Times,serif" font-size="22.00"> &#160;&#160;&#160;sys &#160;&#160;&#160;&#160;</text>
</g>
<g id="clust4" class="cluster">
<title>cluster_logging</title>
<polygon fill="none" stroke="black" stroke-width="2.5" points="633,-85.3 633,-138.4 743,-138.4 743,-85.3 633,-85.3"/>
<text text-anchor="middle" x="688" y="-113.5" font-family="Times,serif" font-size="22.00"> &#160;logging &#160;&#160;</text>
</g>
<g id="clust5" class="cluster">
<title>cluster_tabulate</title>
<polygon fill="none" stroke="black" stroke-width="2.5" points="8,-69.1 8,-238.7 114,-238.7 114,-69.1 8,-69.1"/>
<text text-anchor="middle" x="61" y="-213.8" font-family="Times,serif" font-size="22.00"> &#160;tabulate &#160;</text>
</g>
<g id="clust6" class="cluster">
<title>cluster_get_docker_images_size</title>
<polygon fill="none" stroke="black" stroke-width="2.5" points="122,-146.4 122,-371.88 767,-371.88 767,-146.4 122,-146.4"/>
<text text-anchor="middle" x="444.5" y="-346.98" font-family="Times,serif" font-size="22.00">get_docker_images_size</text>
</g>
<!-- boto3.cluster&#45;invis&#45;node -->
<!-- argparse.cluster&#45;invis&#45;node -->
<!-- sys.cluster&#45;invis&#45;node -->
<!-- logging.cluster&#45;invis&#45;node -->
<!-- tabulate.cluster&#45;invis&#45;node -->
<!-- tabulate.tabulate -->
<g id="node6" class="node">
<title>tabulate.tabulate</title>
<polygon fill="none" stroke="black" points="100.38,-113.1 47.62,-113.1 47.62,-77.1 106.38,-77.1 106.38,-107.1 100.38,-113.1"/>
<polyline fill="none" stroke="black" points="100.38,-113.1 100.38,-107.1"/>
<polyline fill="none" stroke="black" points="106.38,-107.1 100.38,-107.1"/>
<text text-anchor="middle" x="77" y="-90.05" font-family="Times,serif" font-size="14.00">tabulate</text>
</g>
<!-- get_docker_images_size.AwsEcrAuthenticator -->
<g id="node7" class="node">
<title>get_docker_images_size.AwsEcrAuthenticator</title>
<g id="a_node7"><a xlink:title="&#10;Class for authenticating with AWS ECR and checking read permissions.&#10;">
<polygon fill="#ffe0e0" stroke="black" points="758.67,-236.4 538.08,-236.4 481.33,-154.4 701.92,-154.4 758.67,-236.4"/>
<text text-anchor="middle" x="620" y="-198.6" font-family="Times,serif" font-size="14.00">AwsEcrAuthenticator</text>
<text text-anchor="middle" x="620" y="-182.1" font-family="Times,serif" font-size="14.00">C:10</text>
</a>
</g>
</g>
<!-- get_docker_images_size.AwsEcrAuthenticator&#45;&gt;boto3.cluster&#45;invis&#45;node -->
<g id="edge1" class="edge">
<title>get_docker_images_size.AwsEcrAuthenticator&#45;&gt;boto3.cluster&#45;invis&#45;node</title>
<path fill="none" stroke="#990000" stroke-dasharray="5,2" d="M519.76,-154.1C515.03,-150.63 510.53,-146.89 504.39,-140.21"/>
<polygon fill="#990000" stroke="#990000" points="507.19,-138.1 497.99,-132.83 501.9,-142.68 507.19,-138.1"/>
</g>
<!-- get_docker_images_size.AwsEcrAuthenticator&#45;&gt;argparse.cluster&#45;invis&#45;node -->
<g id="edge2" class="edge">
<title>get_docker_images_size.AwsEcrAuthenticator&#45;&gt;argparse.cluster&#45;invis&#45;node</title>
<path fill="none" stroke="#990000" stroke-dasharray="5,2" d="M543.11,-154.19C538.12,-149.41 533.65,-144.15 530,-138.4 517.76,-119.1 513.42,-94.47 512.46,-72.58"/>
<polygon fill="#990000" stroke="#990000" points="515.96,-72.54 512.28,-62.61 508.96,-72.67 515.96,-72.54"/>
</g>
<!-- get_docker_images_size.AwsEcrAuthenticator&#45;&gt;sys.cluster&#45;invis&#45;node -->
<g id="edge3" class="edge">
<title>get_docker_images_size.AwsEcrAuthenticator&#45;&gt;sys.cluster&#45;invis&#45;node</title>
<path fill="none" stroke="black" stroke-dasharray="5,2" d="M603.62,-154.13C602.89,-152.35 602.16,-150.55 601.42,-148.74"/>
<polygon fill="black" stroke="black" points="604.79,-147.74 597.78,-139.8 598.31,-150.38 604.79,-147.74"/>
</g>
<!-- get_docker_images_size.AwsEcrAuthenticator&#45;&gt;logging.cluster&#45;invis&#45;node -->
<g id="edge4" class="edge">
<title>get_docker_images_size.AwsEcrAuthenticator&#45;&gt;logging.cluster&#45;invis&#45;node</title>
<path fill="none" stroke="black" stroke-dasharray="5,2" d="M629.42,-154.13C629.8,-152.51 630.18,-150.88 630.57,-149.24"/>
<polygon fill="black" stroke="black" points="633.89,-150.41 632.76,-139.87 627.07,-148.81 633.89,-150.41"/>
</g>
<!-- get_docker_images_size.DockerImageSizeReporter -->
<g id="node8" class="node">
<title>get_docker_images_size.DockerImageSizeReporter</title>
<g id="a_node8"><a xlink:title="&#10;Class for reporting the sizes of Docker images in AWS ECR repositories.&#10;">
<polygon fill="#ffe0e0" stroke="black" points="463.66,-236.4 198.54,-236.4 130.34,-154.4 395.46,-154.4 463.66,-236.4"/>
<text text-anchor="middle" x="297" y="-198.6" font-family="Times,serif" font-size="14.00">DockerImageSizeReporter</text>
<text text-anchor="middle" x="297" y="-182.1" font-family="Times,serif" font-size="14.00">C:93</text>
</a>
</g>
</g>
<!-- get_docker_images_size.DockerImageSizeReporter&#45;&gt;sys.cluster&#45;invis&#45;node -->
<g id="edge5" class="edge">
<title>get_docker_images_size.DockerImageSizeReporter&#45;&gt;sys.cluster&#45;invis&#45;node</title>
<path fill="none" stroke="black" stroke-dasharray="5,2" d="M404.71,-164.87C453.57,-151.46 500.67,-138.53 501,-138.4 508.54,-135.39 516.29,-131.85 523.85,-128.12"/>
<polygon fill="black" stroke="black" points="525.33,-131.29 532.66,-123.64 522.16,-125.05 525.33,-131.29"/>
</g>
<!-- get_docker_images_size.DockerImageSizeReporter&#45;&gt;logging.cluster&#45;invis&#45;node -->
<g id="edge6" class="edge">
<title>get_docker_images_size.DockerImageSizeReporter&#45;&gt;logging.cluster&#45;invis&#45;node</title>
<path fill="none" stroke="black" stroke-dasharray="5,2" d="M401.68,-161.72C424.65,-155.67 448.98,-150.1 472,-146.4 487.22,-143.95 587.1,-147.84 622.61,-138.86"/>
<polygon fill="black" stroke="black" points="623.7,-142.2 631.61,-135.14 621.03,-135.73 623.7,-142.2"/>
</g>
<!-- get_docker_images_size.DockerImageSizeReporter&#45;&gt;tabulate.tabulate -->
<g id="edge7" class="edge">
<title>get_docker_images_size.DockerImageSizeReporter&#45;&gt;tabulate.tabulate</title>
<path fill="none" stroke="#990000" stroke-dasharray="5,2" d="M206.57,-153.99C175.35,-140.05 141.97,-125.13 116.9,-113.93"/>
<polygon fill="#990000" stroke="#990000" points="118.64,-110.87 108.08,-109.99 115.79,-117.26 118.64,-110.87"/>
</g>
<!-- get_docker_images_size.main -->
<g id="node9" class="node">
<title>get_docker_images_size.main</title>
<g id="a_node9"><a xlink:title="&#10;Main function to run the AWS ECR authentication and Docker image size reporting.&#10;">
<ellipse fill="#bbeeff" stroke="black" cx="458" cy="-301.39" rx="52.15" ry="28.99"/>
<text text-anchor="middle" x="458" y="-304.59" font-family="Times,serif" font-size="14.00"> &#160;&#160;&#160;main &#160;&#160;&#160;</text>
<text text-anchor="middle" x="458" y="-288.09" font-family="Times,serif" font-size="14.00">F:164</text>
</a>
</g>
</g>
<!-- get_docker_images_size.main&#45;&gt;get_docker_images_size.AwsEcrAuthenticator -->
<g id="edge8" class="edge">
<title>get_docker_images_size.main&#45;&gt;get_docker_images_size.AwsEcrAuthenticator</title>
<path fill="none" stroke="black" d="M491.57,-278.84C507.81,-268.41 527.99,-255.46 547.51,-242.94"/>
<polygon fill="black" stroke="black" points="549.21,-246 555.74,-237.65 545.43,-240.11 549.21,-246"/>
</g>
<!-- get_docker_images_size.main&#45;&gt;get_docker_images_size.DockerImageSizeReporter -->
<g id="edge9" class="edge">
<title>get_docker_images_size.main&#45;&gt;get_docker_images_size.DockerImageSizeReporter</title>
<path fill="none" stroke="black" d="M424.64,-278.84C408.49,-268.41 388.44,-255.46 369.05,-242.94"/>
<polygon fill="black" stroke="black" points="371.17,-240.14 360.87,-237.65 367.37,-246.02 371.17,-240.14"/>
</g>
<!-- get_docker_images_size.cluster&#45;invis&#45;node -->
<!-- get_docker_images_size.cluster&#45;invis&#45;node&#45;&gt;tabulate.cluster&#45;invis&#45;node -->
</g>
</svg>
